<svg width="48" height="48" viewBox="0 0 48 48" fill="none" xmlns="http://www.w3.org/2000/svg">
<circle cx="24" cy="24" r="24" fill="#4A3AFF"/>
<path opacity="0.5" fill-rule="evenodd" clip-rule="evenodd" d="M31.7494 19.2877C33.4224 19.2877 34.7786 17.9337 34.7786 16.2633C34.7786 14.593 33.4224 13.2389 31.7494 13.2389C30.0764 13.2389 28.7202 14.593 28.7202 16.2633C28.7202 17.9337 30.0764 19.2877 31.7494 19.2877Z" fill="white"/>
<path opacity="0.7" fill-rule="evenodd" clip-rule="evenodd" d="M31.7494 27.1649C33.4224 27.1649 34.7786 25.7478 34.7786 23.9998C34.7786 22.2517 33.4224 20.8347 31.7494 20.8347C30.0764 20.8347 28.7202 22.2517 28.7202 23.9998C28.7202 25.7478 30.0764 27.1649 31.7494 27.1649Z" fill="white"/>
<path fill-rule="evenodd" clip-rule="evenodd" d="M31.7494 34.761C33.4224 34.761 34.7786 33.4069 34.7786 31.7366C34.7786 30.0663 33.4224 28.7122 31.7494 28.7122C30.0764 28.7122 28.7202 30.0663 28.7202 31.7366C28.7202 33.4069 30.0764 34.761 31.7494 34.761Z" fill="white"/>
<path opacity="0.6" fill-rule="evenodd" clip-rule="evenodd" d="M24.0004 27.1649C25.7512 27.1649 27.1705 25.7478 27.1705 23.9998C27.1705 22.2517 25.7512 20.8347 24.0004 20.8347C22.2496 20.8347 20.8303 22.2517 20.8303 23.9998C20.8303 25.7478 22.2496 27.1649 24.0004 27.1649Z" fill="white"/>
<path opacity="0.9" fill-rule="evenodd" clip-rule="evenodd" d="M24.0004 34.761C25.7512 34.761 27.1705 33.4069 27.1705 31.7366C27.1705 30.0663 25.7512 28.7122 24.0004 28.7122C22.2496 28.7122 20.8303 30.0663 20.8303 31.7366C20.8303 33.4069 22.2496 34.761 24.0004 34.761Z" fill="white"/>
<path opacity="0.8" fill-rule="evenodd" clip-rule="evenodd" d="M16.2509 34.761C17.9238 34.761 19.28 33.4069 19.28 31.7366C19.28 30.0663 17.9238 28.7122 16.2509 28.7122C14.5779 28.7122 13.2217 30.0663 13.2217 31.7366C13.2217 33.4069 14.5779 34.761 16.2509 34.761Z" fill="white"/>
</svg>
